<svg id="Layer_1" data-name="Layer 1" xmlns="http://www.w3.org/2000/svg" viewBox="0 0 756 369"><defs><style>.cls-1{fill:#aed581;}.cls-2{fill:#9ccc85;}.cls-3{font-size:24px;font-family:Helvetica-Bold, Helvetica;font-weight:700;}.cls-4{letter-spacing:-0.04em;}.cls-5{fill:#8bc34a;}.cls-6{fill:#7cb342;}.cls-7{letter-spacing:-0.05em;}</style></defs><title>barnet-hierarchy-2</title><rect class="cls-1" x="0.5" y="0.5" width="755" height="368"/><path d="M860,101V468H106V101H860m1-1H105V469H861V100Z" transform="translate(-105 -100)"/><rect class="cls-2" x="44.5" y="46.5" width="665" height="278"/><path d="M814,147V424H150V147H814m1-1H149V425H815V146Z" transform="translate(-105 -100)"/><text class="cls-3" transform="translate(14 29)">United Kingdom /<tspan class="cls-4" x="198.64" y="0" xml:space="preserve"> A</tspan><tspan x="220.89" y="0" xml:space="preserve"> / PCLI (2635167)</tspan></text><text class="cls-3" transform="translate(58 75)">England /<tspan class="cls-4" x="108" y="0" xml:space="preserve"> A</tspan><tspan x="130.24" y="0" xml:space="preserve"> /</tspan><tspan class="cls-4" x="143.58" y="0"> </tspan><tspan x="149.37" y="0">ADM1 (6269131)</tspan></text><rect class="cls-5" x="93.5" y="89.5" width="570" height="197"/><path d="M768,190V386H199V190H768m1-1H198V387H769V189Z" transform="translate(-105 -100)"/><rect class="cls-6" x="138.5" y="134.5" width="493" height="123"/><path d="M736,235V357H244V235H736m1-1H243V358H737V234Z" transform="translate(-105 -100)"/><text class="cls-3" transform="translate(103 119)">Greater London /<tspan class="cls-4" x="193.35" y="0" xml:space="preserve"> A</tspan><tspan x="215.59" y="0" xml:space="preserve"> /</tspan><tspan class="cls-4" x="228.93" y="0"> </tspan><tspan x="234.71" y="0">ADM2 (2648</tspan><tspan class="cls-7" x="370.77" y="0">1</tspan><tspan x="382.8" y="0">10)</tspan></text><text class="cls-3" transform="translate(149 164)">Barnet /<tspan class="cls-4" x="89.36" y="0" xml:space="preserve"> A</tspan><tspan x="111.6" y="0" xml:space="preserve"> /</tspan><tspan class="cls-4" x="124.93" y="0"> </tspan><tspan x="130.72" y="0">ADM3(3333121)</tspan></text></svg>