<svg id="Layer_1" data-name="Layer 1" xmlns="http://www.w3.org/2000/svg" viewBox="0 0 918 522"><defs><style>.cls-1{fill:#dcedc8;}.cls-2{fill:#c5e1a5;}.cls-3{fill:#aed581;}.cls-4{fill:#9ccc85;}.cls-5{font-size:24px;font-family:Helvetica-Bold, Helvetica;font-weight:700;}.cls-6{letter-spacing:-0.02em;}.cls-7{letter-spacing:-0.04em;}.cls-8{fill:#8bc34a;}.cls-9{fill:#7cb342;}.cls-10{letter-spacing:-0.05em;}.cls-11{fill:#689f38;}</style></defs><title>barnet-hierarchy</title><rect class="cls-1" x="0.5" y="0.5" width="917" height="521"/><path d="M935,19V539H19V19H935m1-1H18V540H936V18Z" transform="translate(-18 -18)"/><rect class="cls-2" x="42.5" y="39.5" width="836" height="449"/><path d="M896,58V506H61V58H896m1-1H60V507H897V57Z" transform="translate(-18 -18)"/><rect class="cls-3" x="87.5" y="82.5" width="755" height="368"/><path d="M860,101V468H106V101H860m1-1H105V469H861V100Z" transform="translate(-18 -18)"/><rect class="cls-4" x="131.5" y="128.5" width="665" height="278"/><path d="M814,147V424H150V147H814m1-1H149V425H815V146Z" transform="translate(-18 -18)"/><text class="cls-5" transform="translate(9 27)">Earth / <tspan class="cls-6" x="81.35" y="0">L</tspan><tspan x="95.59" y="0" xml:space="preserve"> /</tspan><tspan class="cls-7" x="108.93" y="0"> </tspan><tspan x="114.71" y="0">ARE</tspan><tspan class="cls-7" x="165.39" y="0">A</tspan><tspan x="181.84" y="0" xml:space="preserve"> (6295630)</tspan></text><text class="cls-5" transform="translate(56 66)">Europe / <tspan class="cls-6" x="102.68" y="0">L</tspan><tspan x="116.92" y="0" xml:space="preserve"> / CONT (6255148)</tspan></text><text class="cls-5" transform="translate(101 111)">United Kingdom /<tspan class="cls-7" x="198.64" y="0" xml:space="preserve"> A</tspan><tspan x="220.89" y="0" xml:space="preserve"> / PCLI (2635167)</tspan></text><text class="cls-5" transform="translate(145 157)">England /<tspan class="cls-7" x="108" y="0" xml:space="preserve"> A</tspan><tspan x="130.24" y="0" xml:space="preserve"> /</tspan><tspan class="cls-7" x="143.58" y="0"> </tspan><tspan x="149.37" y="0">ADM1 (6269131)</tspan></text><rect class="cls-8" x="180.5" y="171.5" width="570" height="197"/><path d="M768,190V386H199V190H768m1-1H198V387H769V189Z" transform="translate(-18 -18)"/><rect class="cls-9" x="225.5" y="216.5" width="493" height="123"/><path d="M736,235V357H244V235H736m1-1H243V358H737V234Z" transform="translate(-18 -18)"/><text class="cls-5" transform="translate(190 201)">Greater London /<tspan class="cls-7" x="193.35" y="0" xml:space="preserve"> A</tspan><tspan x="215.59" y="0" xml:space="preserve"> /</tspan><tspan class="cls-7" x="228.93" y="0"> </tspan><tspan x="234.71" y="0">ADM2 (2648</tspan><tspan class="cls-10" x="370.77" y="0">1</tspan><tspan x="382.8" y="0">10)</tspan></text><text class="cls-5" transform="translate(236 246)">Barnet /<tspan class="cls-7" x="89.36" y="0" xml:space="preserve"> A</tspan><tspan x="111.6" y="0" xml:space="preserve"> /</tspan><tspan class="cls-7" x="124.93" y="0"> </tspan><tspan x="130.72" y="0">ADM3 (3333121)</tspan></text><rect class="cls-11" x="270.5" y="261.5" width="417" height="48"/><path d="M705,280v47H289V280H705m1-1H288v49H706V279Z" transform="translate(-18 -18)"/><text class="cls-5" transform="translate(288 293)">Barnet / <tspan class="cls-6" x="96.02" y="0">P</tspan><tspan x="111.61" y="0" xml:space="preserve"> / PP</tspan><tspan class="cls-6" x="163.63" y="0">L</tspan><tspan x="177.87" y="0" xml:space="preserve"> (2656295)</tspan></text></svg>